# xmcd CD database file
# Generated: Sun Jan 6 12:52:32 2002 by KSCD
# 
# Track frame offsets:
#       150
#       8152
#       21075
#       29155
#       40650
#       52125
#       65025
#       77625
#       88944
#       101775
#       110880
#       117150
#       135525
#       150000
#       159975
#       172765
#       187575
#       190650
#
# Disc length: 2901 seconds
#
# Revision: 1
# Processed by: cddbd v1.4PL0 Copyright (c) Steve Scherf et al.
# Submitted via: Kscd 1.3.2
#
DISCID=df0b5312
DTITLE=Ghoul Squad - The Witch Grows Up
DYEAR=1900
DGENRE=
TTITLE0=Mara
TTITLE1=Witch Dungeon
TTITLE2=Bride of Frankenstein
TTITLE3=The Saw is Family
TTITLE4=Pogo is Dead
TTITLE5=Agoraphobic Witchcraft
TTITLE6=Abnormal
TTITLE7=Cave Girl #14
TTITLE8=Chamber of Horrors
TTITLE9=Doppleganger
TTITLE10=Boo
TTITLE11=Zombie Lake
TTITLE12=Scared to Death
TTITLE13=I Was a Teenage Werewolf
TTITLE14=Jody
TTITLE15=Cemetary Seniors
TTITLE16=House of Mirrors
TTITLE17=Bonus Track
EXTD=1998\nhttp://www.ghoulsquad.com/
EXTT0=
EXTT1=
EXTT2=
EXTT3=
EXTT4=
EXTT5=
EXTT6=
EXTT7=
EXTT8=
EXTT9=
EXTT10=
EXTT11=
EXTT12=
EXTT13=
EXTT14=
EXTT15=
EXTT16=
EXTT17=
PLAYORDER=
